<?xml version="1.0" encoding="iso-8859-1"?>
<!-- Uploaded to: SVG Repo, www.svgrepo.com, Generator: SVG Repo Mixer Tools -->
<!DOCTYPE svg PUBLIC "-//W3C//DTD SVG 1.1//EN" "http://www.w3.org/Graphics/SVG/1.1/DTD/svg11.dtd">
<svg fill="#000000" version="1.1" id="Capa_1" xmlns="http://www.w3.org/2000/svg" xmlns:xlink="http://www.w3.org/1999/xlink" 
	 width="800px" height="800px" viewBox="0 0 98.491 98.492"
	 xml:space="preserve">
<g>
	<g>
		<path d="M35.807,59.748H30.6V19.816c0-2.611-2.116-4.725-4.721-4.725H12.995c-2.604,0-4.72,2.113-4.72,4.725v39.931H3.067
			c-1.196,0-2.28,0.695-2.781,1.777c-0.506,1.088-0.329,2.367,0.441,3.28l13.94,16.394c1.189,1.396,2.938,2.201,4.771,2.201
			c1.832,0,3.573-0.805,4.768-2.201l13.939-16.394c0.771-0.913,0.949-2.192,0.444-3.28C38.088,60.443,36.999,59.748,35.807,59.748z"
			/>
		<path d="M95.673,15.092H47.067c-1.555,0-2.821,1.256-2.821,2.816v9.583c0,1.556,1.266,2.817,2.821,2.817h48.605
			c1.552,0,2.819-1.261,2.819-2.817v-9.583C98.492,16.348,97.225,15.092,95.673,15.092z M49.33,21.766
			c-0.963,0-1.739-0.772-1.739-1.736c0-0.96,0.776-1.736,1.739-1.736c0.961,0,1.736,0.776,1.736,1.736
			C51.066,20.994,50.291,21.766,49.33,21.766z M91.078,26.779H78.797V22.7h12.281V26.779z"/>
		<path d="M95.673,31.855H47.067c-1.556,0-2.821,1.257-2.821,2.812v9.584c0,1.558,1.266,2.815,2.821,2.815h48.605
			c1.552,0,2.819-1.257,2.819-2.815v-9.584C98.492,33.112,97.225,31.855,95.673,31.855z M49.33,38.53
			c-0.963,0-1.739-0.773-1.739-1.741c0-0.956,0.776-1.736,1.739-1.736c0.961,0,1.736,0.78,1.736,1.736
			C51.066,37.757,50.291,38.53,49.33,38.53z M91.078,43.542H78.797v-4.08h12.281V43.542z"/>
		<path d="M95.673,48.617H47.067c-1.556,0-2.821,1.257-2.821,2.814v9.583c0,1.558,1.266,2.815,2.821,2.815h48.605
			c1.552,0,2.819-1.258,2.819-2.815v-9.583C98.492,49.875,97.225,48.617,95.673,48.617z M49.33,55.292
			c-0.963,0-1.739-0.773-1.739-1.739c0-0.961,0.776-1.733,1.739-1.733c0.961,0,1.736,0.772,1.736,1.733
			C51.066,54.518,50.291,55.292,49.33,55.292z M91.078,60.301H78.797v-4.08h12.281V60.301z"/>
		<polygon points="79.764,72.998 74.584,72.998 74.584,65.46 68.158,65.46 68.158,72.998 62.972,72.998 62.972,74.986 
			44.842,74.986 44.842,81.41 62.972,81.41 62.972,83.398 79.764,83.398 79.764,81.41 97.896,81.41 97.896,74.986 79.764,74.986 		
			"/>
	</g>
</g>
</svg>