<?xml version="1.0" encoding="utf-8"?>
<!-- Generator: Adobe Illustrator 27.2.0, SVG Export Plug-In . SVG Version: 6.00 Build 0)  -->
<svg version="1.1" id="Шар_1" xmlns="http://www.w3.org/2000/svg" xmlns:xlink="http://www.w3.org/1999/xlink" x="0px" y="0px"
	 viewBox="0 0 583.8 572.3" style="enable-background:new 0 0 583.8 572.3;" xml:space="preserve">
<style type="text/css">
	.st0{fill-rule:evenodd;clip-rule:evenodd;fill:#2396FD;}
	.st1{fill-rule:evenodd;clip-rule:evenodd;fill:#FDDA24;}
	.st2{fill-rule:evenodd;clip-rule:evenodd;fill:url(#SVGID_1_);}
</style>
<g>
	<path class="st0" d="M40.2,527.6l25.4-29.5c1.9-1.9,0.8-4.5-2-4.5H44.6c-1.8,0-3.6,0.7-5.1,2.5L22,518.1v-20.7
		c0-2.6-1.4-3.9-4.1-3.9H4.1c-2.7,0-4.1,1.3-4.1,3.9v68.4c0,2.6,1.4,3.9,4.1,3.9h13.9c2.7,0,4.1-1.3,4.1-3.9V541l23,26.2
		c1.4,1.6,2.7,2.6,4.7,2.6h20.2c2.6,0,3.5-2.5,2.1-4.4L40.2,527.6z"/>
	<g>
		<path class="st1" d="M179.8,462.2c0-10.8-8.9-19.2-20.2-19.2c-10.9,0-19.9,8.4-19.9,19.2c0,10.9,9,19.4,19.9,19.4
			C170.9,481.5,179.8,473.1,179.8,462.2z"/>
		<path class="st1" d="M231.4,462.2c0-10.8-9-19.2-20.2-19.2c-11,0-19.9,8.4-19.9,19.2c0,10.9,8.9,19.4,19.9,19.4
			C222.4,481.5,231.4,473.1,231.4,462.2z"/>
		<path class="st0" d="M192.5,493.6h-14.8c-2.9,0-4.2,1.3-4.2,3.9v68.4c0,2.6,1.4,3.9,4.2,3.9h14.8c2.9,0,4.1-1.3,4.1-3.9v-68.4
			C196.5,494.9,195.3,493.6,192.5,493.6z"/>
	</g>
	<path class="st0" d="M551.8,530.8h-11.9v-19.7h11.6C566.9,511.2,568,530.8,551.8,530.8z M553.4,493.6l-32.4,0
		c-2.9,0-4.2,1.3-4.2,3.9v68.4c0,2.6,1.4,3.9,4.2,3.9h14.8c2.9,0,4.1-1.3,4.1-3.9v-18.2h12.7c17.8,0,31.3-9.4,31.3-26.4
		C583.8,504.2,570,493.6,553.4,493.6z"/>
	<path class="st0" d="M429.3,493.6h-57.4c-2.7,0-4.1,1.2-4.1,3.9v13.2c0,2.8,1.4,4.1,4.1,4.1H389v51c0,2.6,1.4,3.9,4.2,3.9H408
		c2.9,0,4.1-1.3,4.1-3.9v-51h17.2c2.7,0,4.1-1.3,4.1-4.1v-13.2C433.3,494.7,432,493.6,429.3,493.6z"/>
	<path class="st0" d="M255.2,552.8h-19v-14.2h19C266.8,538.5,267.5,552.8,255.2,552.8z M236.2,510.6h14.3c9.2,0,9.3,11.8,0,11.8
		h-14.3V510.6z M272.1,528.2c14-13,4.7-34.6-16.9-34.6l-36.1,0c-2.9,0-4.2,1.3-4.2,3.9v68.4c0,2.6,1.4,3.9,4.2,3.9h39.7
		C287,569.8,294.5,538.5,272.1,528.2z"/>
	<path class="st0" d="M152,493.5l-17.9,0l-32.8,43.9v-40c0-2.6-1.2-3.9-4.1-3.9H83.8c-2.9,0-4.2,1.3-4.2,3.9v68.4
		c0,2.6,1.3,3.9,4.2,3.9h17.5l33.2-43v39.1c0,2.6,1.2,3.9,4.1,3.9h13.4c2.9,0,4.2-1.3,4.2-3.9v-68.4
		C156.2,494.9,154.8,493.5,152,493.5z"/>
	<path class="st0" d="M330.8,552.1c-11.8,0-21.2-9-21.2-20.4c0-11.2,9.5-20.4,21.1-20.4c6.8,0,13.6,2.9,17.2,6.1
		c1.6,1.5,2.9,2.5,5.4,0l8.9-8.4c1.2-1.2,1.7-3.1-0.5-5c-8.6-7.7-18.2-12.8-30.9-12.8c-23.2,0-42,18-42,40.4
		c0,22.4,18.8,40.6,41.9,40.6c12.8,0,22.5-5.1,31-12.8c2.1-1.9,1.7-3.8,0.5-4.9l-8.9-8.4c-2.6-2.5-3.8-1.5-5.4,0
		C344.2,549.3,337.4,552.1,330.8,552.1z"/>
	<path class="st0" d="M460.7,539.8l8-22.4h0l8,22.4H460.7z M509.3,566l-27-69.5c-0.6-1.8-2.1-2.9-4.5-2.9h-18.2
		c-2.3,0-3.8,1.1-4.5,2.9l-27,69.5c-0.8,2.1,0.4,3.8,2.7,3.8h16.6c1.4,0,2.9-1,3.3-2.3l3.6-10.2h0H483h0l3.7,10.2
		c0.5,1.3,2,2.3,3.3,2.3h16.6C508.9,569.8,510.1,568.1,509.3,566z"/>
</g>
<linearGradient id="SVGID_1_" gradientUnits="userSpaceOnUse" x1="291.9043" y1="-116.4706" x2="291.9043" y2="463.413">
	<stop  offset="0.1117" style="stop-color:#FF0000"/>
	<stop  offset="0.3377" style="stop-color:#FFB500"/>
	<stop  offset="0.4198" style="stop-color:#FFD400"/>
	<stop  offset="0.57" style="stop-color:#00CC00"/>
	<stop  offset="0.6804" style="stop-color:#40CCD6"/>
	<stop  offset="1" style="stop-color:#8E008E"/>
</linearGradient>
<path class="st2" d="M291.9,153.9c-15.4,0-28-12.2-28-27.2V27.1c0-15,12.5-27.1,28-27.1c15.4,0,27.9,12.2,27.9,27.1v99.6
	C319.8,141.7,307.3,153.9,291.9,153.9z M226.6,200c-4.8,14.3-20.5,22.1-35.2,17.4L94,186.6C79.3,182,71.3,166.7,76,152.4
	c4.8-14.3,20.5-22.1,35.2-17.4l97.4,30.8C223.4,170.4,231.4,185.7,226.6,200z M357.2,200c4.8,14.3,20.5,22.1,35.2,17.4l97.4-30.8
	c14.7-4.6,22.7-20,17.9-34.2c-4.8-14.3-20.5-22.1-35.2-17.4l-97.5,30.8C360.4,170.4,352.4,185.7,357.2,200z M158.4,399.1
	c-12.5-8.8-15.3-25.8-6.2-37.9l60.2-80.6c9.1-12.1,26.5-14.8,39-6c12.5,8.8,15.3,25.8,6.2,37.9l-60.2,80.6
	C188.4,405.2,170.9,407.9,158.4,399.1z M425.4,399.1c12.5-8.8,15.3-25.8,6.2-37.9l-60.2-80.6c-9.1-12.1-26.5-14.8-39-6
	c-12.5,8.8-15.3,25.8-6.2,37.9l60.2,80.6C395.4,405.2,412.9,407.9,425.4,399.1z"/>
</svg>
