<svg width="10" height="10" viewBox="0 0 10 10" fill="none" xmlns="http://www.w3.org/2000/svg">
<path d="M5 8.74999C4.47372 8.30109 3.98591 7.80896 3.54167 7.27874C2.875 6.48249 2.08333 5.29666 2.08333 4.16666C2.08274 2.98647 2.79344 1.92224 3.88378 1.47057C4.97412 1.01891 6.22919 1.26884 7.06333 2.10374C7.61186 2.64983 7.91913 3.39265 7.91668 4.16666C7.91668 5.29666 7.125 6.48249 6.45833 7.27874C6.01409 7.80896 5.52628 8.30109 5 8.74999ZM5 2.91666C4.55342 2.91666 4.14076 3.15491 3.91747 3.54166C3.69418 3.92841 3.69418 4.40491 3.91747 4.79166C4.14076 5.17841 4.55342 5.41666 5 5.41666C5.69036 5.41666 6.25 4.85701 6.25 4.16666C6.25 3.4763 5.69036 2.91666 5 2.91666Z" fill="#79819A"/>
</svg>
