<svg width="8" height="8" viewBox="0 0 8 8" fill="none" xmlns="http://www.w3.org/2000/svg">
<path d="M6.91562 7.33333C3.36078 7.33837 0.662869 4.60813 0.666672 1.08438C0.666672 0.854266 0.85322 0.666672 1.08334 0.666672H2.18307C2.38956 0.666672 2.56497 0.818392 2.59529 1.02264C2.66796 1.51217 2.81049 1.98874 3.01854 2.4378L3.06135 2.53022C3.12089 2.65872 3.08053 2.8114 2.96528 2.8937C2.62471 3.13692 2.49455 3.62649 2.75987 4.00849C3.09283 4.48785 3.51252 4.90746 3.99178 5.24026C4.37376 5.50551 4.86325 5.37537 5.10646 5.03486C5.18882 4.91955 5.34159 4.87917 5.47017 4.93873L5.56216 4.98135C6.01125 5.18938 6.48785 5.33191 6.97743 5.40457C7.18169 5.43488 7.33333 5.61029 7.33333 5.81678V6.91666C7.33333 7.14678 7.14633 7.33333 6.91621 7.33333L6.91562 7.33333Z" fill="#79819A"/>
</svg>
