<svg width="10" height="10" viewBox="0 0 10 10" fill="none" xmlns="http://www.w3.org/2000/svg">
<path d="M3.52708 8.55625C2.68452 8.55625 1.92491 8.04871 1.60242 7.2703C1.27993 6.49189 1.45806 5.59587 2.05375 4.99999L2.93792 4.11583L3.52708 4.70499L2.64333 5.58874C2.32753 5.90455 2.20419 6.36485 2.31978 6.79625C2.43538 7.22765 2.77234 7.56462 3.20374 7.68021C3.63514 7.79581 4.09544 7.67247 4.41125 7.35666L5.295 6.47291L5.88417 7.06249L5.00042 7.94624C4.61045 8.33813 4.07994 8.55778 3.52708 8.55625ZM3.82167 6.76749L3.2325 6.17833L6.17875 3.23208L6.76792 3.82124L3.82208 6.76708L3.82167 6.76749ZM7.06292 5.88374L6.47334 5.29458L7.35709 4.41083C7.67719 4.09596 7.80383 3.6336 7.68885 3.19957C7.57387 2.76553 7.23493 2.42651 6.80092 2.31143C6.36691 2.19634 5.90452 2.32288 5.58958 2.64291L4.70542 3.52666L4.11625 2.93749L5.00042 2.05333C5.81504 1.24581 7.12916 1.24869 7.94023 2.05976C8.75131 2.87084 8.75418 4.18496 7.94667 4.99958L7.06292 5.88333V5.88374Z" fill="#79819A"/>
</svg>
